<?xml version="1.0" encoding="UTF-8" standalone="no"?>
<!-- Generator: Adobe Illustrator 16.0.0, SVG Export Plug-In . SVG Version: 6.00 Build 0)  -->

<svg
   xmlns:dc="http://purl.org/dc/elements/1.1/"
   xmlns:cc="http://creativecommons.org/ns#"
   xmlns:rdf="http://www.w3.org/1999/02/22-rdf-syntax-ns#"
   xmlns:svg="http://www.w3.org/2000/svg"
   xmlns="http://www.w3.org/2000/svg"
   xmlns:sodipodi="http://sodipodi.sourceforge.net/DTD/sodipodi-0.dtd"
   xmlns:inkscape="http://www.inkscape.org/namespaces/inkscape"
   version="1.1"
   id="Layer_1"
   x="0px"
   y="0px"
   width="100"
   height="100"
   viewBox="0 0 100 100"
   enable-background="new 0 0 100 60"
   xml:space="preserve"
   inkscape:version="0.48.4 r9939"
   sodipodi:docname="logoSocial.svg"><metadata
   id="metadata19"><rdf:RDF><cc:Work
       rdf:about=""><dc:format>image/svg+xml</dc:format><dc:type
         rdf:resource="http://purl.org/dc/dcmitype/StillImage" /><dc:title></dc:title></cc:Work></rdf:RDF></metadata><defs
   id="defs17" /><sodipodi:namedview
   pagecolor="#ffffff"
   bordercolor="#666666"
   borderopacity="1"
   objecttolerance="10"
   gridtolerance="10"
   guidetolerance="10"
   inkscape:pageopacity="0"
   inkscape:pageshadow="2"
   inkscape:window-width="1366"
   inkscape:window-height="719"
   id="namedview15"
   showgrid="false"
   inkscape:zoom="3.44"
   inkscape:cx="16.70583"
   inkscape:cy="30"
   inkscape:window-x="-4"
   inkscape:window-y="-4"
   inkscape:window-maximized="1"
   inkscape:current-layer="Layer_1" />
<rect
   width="100"
   height="100.11628"
   id="rect3"
   style="fill:#008a00;fill-opacity:1"
   x="0"
   y="0.17441799" />


<text
   xml:space="preserve"
   style="font-size:40px;font-style:normal;font-weight:normal;line-height:125%;letter-spacing:0px;word-spacing:0px;fill:#000000;fill-opacity:1;stroke:none;font-family:Sans"
   x="107.26744"
   y="88.372093"
   id="text3000"
   sodipodi:linespacing="125%"><tspan
     sodipodi:role="line"
     id="tspan3002"
     x="107.26744"
     y="88.372093" /></text>






<path
   d="m 79.499001,5.2906973 h -24.355 c -6.383,0 -14.422,0.942 -21.158,6.4900007 -5.09,4.374 -7.566,10.392 -7.566,15.828 0,9.211 7.094,18.546 19.625,18.546 1.182,0 2.477,-0.12 3.787,-0.235 -0.592,1.413 -1.189,2.594 -1.189,4.605 0,3.663 1.893,5.903 3.547,8.03 -5.314,0.352 -15.248,0.942 -22.582,5.428 -6.975,4.142 -9.107,10.16 -9.107,14.414 -0.002,8.739999 8.277,16.893999 25.422,16.893999 20.336,0 31.098,-11.219999 31.098,-22.329999 0,-8.142 -4.73,-12.164 -9.932,-16.534 l -4.258,-3.305 c -1.295,-1.065 -3.068,-2.479 -3.068,-5.08 0,-2.597 1.773,-4.254 3.307,-5.789 4.963,-3.896 9.932,-8.03 9.932,-16.77 0,-8.979 -5.68,-13.704 -8.396,-15.9470007 h 7.334 l 7.559,-4.245 z m -10.396,72.2790007 c 0,7.323 -6.033,12.752999 -17.385,12.752999 -12.648,0 -20.809,-6.023999 -20.809,-14.404999 0,-8.392 7.568,-11.218 10.166,-12.164 4.969,-1.656 11.352,-1.891 12.414,-1.891 1.184,0 1.775,0 2.725,0.116 8.988,6.377 12.889,9.569 12.889,15.591 z m -9.461,-38.03 c -1.893,1.886 -5.088,3.305 -8.045,3.305 -10.164,0 -14.773,-13.113 -14.773,-21.023 0,-3.072 0.592,-6.258 2.598,-8.74 1.893,-2.362 5.201,-3.8990007 8.277,-3.8990007 9.811,0 14.9,13.2290007 14.9,21.7300007 0,2.13 -0.241,5.906 -2.957,8.627 z"
   id="Google"
   inkscape:connector-curvature="0"
   style="fill:#ffffff" /></svg>