<?xml version="1.0" encoding="UTF-8" standalone="no"?>
<!-- Generator: Adobe Illustrator 16.0.0, SVG Export Plug-In . SVG Version: 6.00 Build 0)  -->

<svg
   xmlns:dc="http://purl.org/dc/elements/1.1/"
   xmlns:cc="http://creativecommons.org/ns#"
   xmlns:rdf="http://www.w3.org/1999/02/22-rdf-syntax-ns#"
   xmlns:svg="http://www.w3.org/2000/svg"
   xmlns="http://www.w3.org/2000/svg"
   xmlns:sodipodi="http://sodipodi.sourceforge.net/DTD/sodipodi-0.dtd"
   xmlns:inkscape="http://www.inkscape.org/namespaces/inkscape"
   version="1.1"
   id="Layer_1"
   x="0px"
   y="0px"
   width="100"
   height="100"
   viewBox="0 0 100 100"
   enable-background="new 0 0 100 60"
   xml:space="preserve"
   inkscape:version="0.48.4 r9939"
   sodipodi:docname="facebook.svg"><metadata
   id="metadata19"><rdf:RDF><cc:Work
       rdf:about=""><dc:format>image/svg+xml</dc:format><dc:type
         rdf:resource="http://purl.org/dc/dcmitype/StillImage" /><dc:title></dc:title></cc:Work></rdf:RDF></metadata><defs
   id="defs17" /><sodipodi:namedview
   pagecolor="#ffffff"
   bordercolor="#666666"
   borderopacity="1"
   objecttolerance="10"
   gridtolerance="10"
   guidetolerance="10"
   inkscape:pageopacity="0"
   inkscape:pageshadow="2"
   inkscape:window-width="1366"
   inkscape:window-height="716"
   id="namedview15"
   showgrid="false"
   inkscape:zoom="3.44"
   inkscape:cx="16.70583"
   inkscape:cy="53.255814"
   inkscape:window-x="-8"
   inkscape:window-y="-8"
   inkscape:window-maximized="1"
   inkscape:current-layer="Layer_1" />
<rect
   width="100"
   height="100.11628"
   id="rect3"
   style="fill:#008a00;fill-opacity:1"
   x="0"
   y="0.17441799" />


<text
   xml:space="preserve"
   style="font-size:40px;font-style:normal;font-weight:normal;line-height:125%;letter-spacing:0px;word-spacing:0px;fill:#000000;fill-opacity:1;stroke:none;font-family:Sans"
   x="107.26744"
   y="88.372093"
   id="text3000"
   sodipodi:linespacing="125%"><tspan
     sodipodi:role="line"
     id="tspan3002"
     x="107.26744"
     y="88.372093" /></text>







<path
   d="m 78.195795,77.563093 c -9.374,-0.038 -14.369,-4.654 -17.841,-12.787 l -0.989,-2.22 -8.562,-19.644 c -2.835,-6.954 -9.881,-11.652 -17.827,-11.652 -10.752,0 -19.475,8.783 -19.475,19.615 0,10.833 8.723,19.616 19.475,19.616 7.5,0 14.026,-4.27 17.278,-10.531 l 3.464,8.038 c -4.914,6.033 -12.385,9.874 -20.743,9.874 -14.808,0 -26.8130001,-12.079 -26.8130001,-26.997 0,-14.909 12.0050001,-27.003 26.8130001,-27.003 11.178,0 20.201,6.009 24.785,16.658 0.352,0.826 4.849,11.423 8.775,20.441 2.432,5.583 4.503,9.284 11.228,9.513 6.606,0.228 11.14,-3.82 11.14,-8.938 0,-5 -3.457,-6.202 -9.294,-8.156 -10.488,-3.48 -15.908,-6.976 -15.908,-15.353 0,-8.171 5.521,-13.62 14.494,-13.62 5.846,0 10.063,2.618 12.985,7.838 l -5.734,2.949 c -2.161,-3.045 -4.541,-4.247 -7.572,-4.247 -4.213,0 -7.215,2.949 -7.215,6.872 0,5.568 4.943,6.409 11.865,8.695 9.31,3.054 13.638,6.541 13.638,15.25 0,9.145 -7.793,15.804 -17.967,15.789 z"
   id="last.fm"
   inkscape:connector-curvature="0"
   style="fill:#ffffff" /></svg>