<?xml version="1.0" encoding="UTF-8" standalone="no"?>
<!-- Generator: Adobe Illustrator 16.0.0, SVG Export Plug-In . SVG Version: 6.00 Build 0)  -->

<svg
   xmlns:dc="http://purl.org/dc/elements/1.1/"
   xmlns:cc="http://creativecommons.org/ns#"
   xmlns:rdf="http://www.w3.org/1999/02/22-rdf-syntax-ns#"
   xmlns:svg="http://www.w3.org/2000/svg"
   xmlns="http://www.w3.org/2000/svg"
   xmlns:sodipodi="http://sodipodi.sourceforge.net/DTD/sodipodi-0.dtd"
   xmlns:inkscape="http://www.inkscape.org/namespaces/inkscape"
   version="1.1"
   id="Layer_1"
   x="0px"
   y="0px"
   width="100"
   height="100"
   viewBox="0 0 100 100"
   enable-background="new 0 0 100 60"
   xml:space="preserve"
   inkscape:version="0.48.4 r9939"
   sodipodi:docname="last.fm.svg"><metadata
   id="metadata19"><rdf:RDF><cc:Work
       rdf:about=""><dc:format>image/svg+xml</dc:format><dc:type
         rdf:resource="http://purl.org/dc/dcmitype/StillImage" /><dc:title></dc:title></cc:Work></rdf:RDF></metadata><defs
   id="defs17" /><sodipodi:namedview
   pagecolor="#ffffff"
   bordercolor="#666666"
   borderopacity="1"
   objecttolerance="10"
   gridtolerance="10"
   guidetolerance="10"
   inkscape:pageopacity="0"
   inkscape:pageshadow="2"
   inkscape:window-width="1366"
   inkscape:window-height="716"
   id="namedview15"
   showgrid="false"
   inkscape:zoom="3.44"
   inkscape:cx="16.70583"
   inkscape:cy="53.255814"
   inkscape:window-x="-8"
   inkscape:window-y="-8"
   inkscape:window-maximized="1"
   inkscape:current-layer="Layer_1" />
<rect
   width="100"
   height="100.11628"
   id="rect3"
   style="fill:#008a00;fill-opacity:1"
   x="0"
   y="0.17441799" />


<text
   xml:space="preserve"
   style="font-size:40px;font-style:normal;font-weight:normal;line-height:125%;letter-spacing:0px;word-spacing:0px;fill:#000000;fill-opacity:1;stroke:none;font-family:Sans"
   x="107.26744"
   y="88.372093"
   id="text3000"
   sodipodi:linespacing="125%"><tspan
     sodipodi:role="line"
     id="tspan3002"
     x="107.26744"
     y="88.372093" /></text>







<path
   d="M 88.197678,63.424 V 92.999998 H 71.051004 V 65.404434 c 0,-6.932434 -2.48,-11.663108 -8.687109,-11.663108 -4.737777,0 -7.557326,3.188456 -8.797326,6.272 -0.452451,1.103108 -0.568891,2.637348 -0.568891,4.181348 v 28.805324 h -17.152 c 0,0 0.231109,-46.737781 0,-51.580438 h 17.151109 v 7.311114 c -0.03474,0.05509 -0.08,0.11376 -0.112892,0.167108 h 0.112892 v -0.167108 c 2.278217,-3.509348 6.347565,-8.522674 15.456,-8.522674 11.285331,0 19.744891,7.372434 19.744891,23.216 z M 17.903461,16.555555 c -5.867565,0 -9.7057824,3.848879 -9.7057824,8.910227 0,4.951109 3.7271094,8.916435 9.4782164,8.916435 h 0.114674 c 5.981326,0 9.701326,-3.964435 9.701326,-8.916435 -0.112891,-5.061348 -3.72,-8.910227 -9.588434,-8.910227 z M 9.216346,92.999998 H 26.362114 V 41.41956 H 9.216346 v 51.580438 z"
   id="LinkedIn"
   inkscape:connector-curvature="0"
   style="fill:#ffffff" /></svg>