<?xml version="1.0" encoding="UTF-8" standalone="no"?>
<!-- Generator: Adobe Illustrator 16.0.0, SVG Export Plug-In . SVG Version: 6.00 Build 0)  -->

<svg
   xmlns:dc="http://purl.org/dc/elements/1.1/"
   xmlns:cc="http://creativecommons.org/ns#"
   xmlns:rdf="http://www.w3.org/1999/02/22-rdf-syntax-ns#"
   xmlns:svg="http://www.w3.org/2000/svg"
   xmlns="http://www.w3.org/2000/svg"
   xmlns:sodipodi="http://sodipodi.sourceforge.net/DTD/sodipodi-0.dtd"
   xmlns:inkscape="http://www.inkscape.org/namespaces/inkscape"
   version="1.1"
   id="Layer_1"
   x="0px"
   y="0px"
   width="100"
   height="100"
   viewBox="0 0 100 100"
   enable-background="new 0 0 100 60"
   xml:space="preserve"
   inkscape:version="0.48.4 r9939"
   sodipodi:docname="logoDesign.svg"><metadata
   id="metadata19"><rdf:RDF><cc:Work
       rdf:about=""><dc:format>image/svg+xml</dc:format><dc:type
         rdf:resource="http://purl.org/dc/dcmitype/StillImage" /><dc:title></dc:title></cc:Work></rdf:RDF></metadata><defs
   id="defs17" /><sodipodi:namedview
   pagecolor="#ffffff"
   bordercolor="#666666"
   borderopacity="1"
   objecttolerance="10"
   gridtolerance="10"
   guidetolerance="10"
   inkscape:pageopacity="0"
   inkscape:pageshadow="2"
   inkscape:window-width="1366"
   inkscape:window-height="719"
   id="namedview15"
   showgrid="false"
   inkscape:zoom="3.44"
   inkscape:cx="16.70583"
   inkscape:cy="30"
   inkscape:window-x="-4"
   inkscape:window-y="-4"
   inkscape:window-maximized="1"
   inkscape:current-layer="Layer_1" />
<rect
   width="100"
   height="100.11628"
   id="rect3"
   style="fill:#0050ec;fill-opacity:1"
   x="0"
   y="0.17441799" />

<path
   style="font-size:40px;font-style:normal;font-weight:normal;line-height:125%;letter-spacing:0px;word-spacing:0px;fill:#ffffff;fill-opacity:1;stroke:none;font-family:Sans"
   d="m 38.732809,42.49869 c 0.693324,2.306637 1.386649,4.613274 2.079973,6.919911 2.199972,0 4.399943,0 6.599915,0 -2.799964,-8.986551 -5.599928,-17.973102 -8.399892,-26.959653 -2.666632,0 -5.333265,0 -7.999897,0 -2.733298,8.986551 -5.466596,17.973102 -8.199894,26.959653 2.093306,0 4.186613,0 6.279919,0 0.639992,-2.306637 1.279983,-4.613274 1.919975,-6.919911 2.5733,0 5.146601,0 7.719901,0 z m -6.839912,-4.559941 c 1.017325,-3.620697 2.066135,-7.237123 2.839964,-10.919859 1.018254,3.646077 2.025865,7.295581 3.119959,10.919859 -1.986641,0 -3.973282,0 -5.959923,0 z m 18.890095,11.479852 c 2.026641,0 4.053281,0 6.079922,0 0.218352,-4.196405 -0.504451,-8.483794 0.503527,-12.610196 1.033395,-2.156569 4.248389,-0.762894 5.355935,-2.707626 0.346999,-1.752439 0.619613,-5.808103 -2.35504,-4.58395 -2.00559,-0.05043 -3.501445,3.063818 -4.262188,3.382276 0.2341,-1.786227 -0.765273,-3.902593 -2.838777,-3.040252 -0.881135,0 -1.762271,0 -2.643407,0 0.287176,6.516207 0.110926,13.040173 0.160028,19.559748 z M 66.857356,26.2189 c 0,1.213318 0,2.426635 0,3.639953 -0.866655,0 -1.733311,0 -2.599966,0 0,1.493314 0,2.986628 0,4.479942 0.866655,0 1.733311,0 2.599966,0 0.270661,4.273069 -0.720137,8.775711 0.956255,12.853382 1.413141,2.285709 4.385406,2.904493 6.887687,2.612003 2.693628,0.436702 2.667984,-2.953083 2.322661,-4.688634 -1.842692,-0.134219 -4.149407,-0.405894 -4.32271,-2.862768 0.08544,-2.202511 0.177726,-4.398555 0.03664,-6.604323 -0.0095,-1.678261 1.760055,-1.28095 2.879801,-1.30966 0.673886,-0.08949 1.900281,0.373529 1.559526,-0.730603 0,-1.24978 0,-2.499559 0,-3.749339 -1.453315,0 -2.906629,0 -4.359944,0 0,-1.759977 0,-3.519955 0,-5.279932 -1.986638,0.54666 -3.973275,1.093319 -5.959913,1.639979 z"
   id="text2996"
   inkscape:connector-curvature="0" />
<text
   xml:space="preserve"
   style="font-size:40px;font-style:normal;font-weight:normal;line-height:125%;letter-spacing:0px;word-spacing:0px;fill:#000000;fill-opacity:1;stroke:none;font-family:Sans"
   x="107.26744"
   y="88.372093"
   id="text3000"
   sodipodi:linespacing="125%"><tspan
     sodipodi:role="line"
     id="tspan3002"
     x="107.26744"
     y="88.372093" /></text>




<path
   style="font-size:14px;font-style:normal;font-weight:normal;line-height:125%;letter-spacing:0px;word-spacing:0px;fill:#ffffff;fill-opacity:1;stroke:none;font-family:Sans"
   d="m 22.594316,60.755813 c 0.549566,-0.168841 1.810829,0.374015 1.811977,-0.343244 0,-0.853573 0,-1.707146 0,-2.560719 1.876939,0.423828 4.360615,-0.818754 3.979632,-3.015895 -0.230188,-2.288354 -3.001077,-2.401519 -4.762622,-2.180038 -1.393718,-0.337699 -0.981022,0.969595 -1.028987,1.836218 0,2.087893 0,4.175785 0,6.263678 z m 1.811977,-6.695914 c 2.176946,-1.01922 3.10156,2.614137 0.611992,2.435969 -1.097855,0.169983 -0.429618,-1.312966 -0.611992,-1.993049 0,-0.14764 0,-0.29528 0,-0.44292 z m 9.972898,3.227958 c 0.255009,-2.156338 -2.234319,-3.047624 -3.955449,-2.365469 -1.575506,-0.02564 -0.57921,2.46522 0.611241,1.117114 1.206081,-0.487422 2.290992,1.284513 0.4291,0.880546 -2.05692,-0.148834 -3.387145,2.893075 -1.254276,3.81814 1.238211,0.833821 2.402314,-1.169496 2.850234,0.01763 1.345573,0.270312 1.683621,-0.260288 1.31915,-1.644811 0,-0.607715 0,-1.21543 0,-1.823145 z m -1.763977,1.331983 c -0.338852,2.333841 -3.067727,-0.310198 -0.671244,-0.58949 0.819718,-0.179029 0.670851,-0.04757 0.671244,0.58949 z m 2.87217,1.847977 c 1.549083,0.855857 4.661962,0.545558 4.403471,-1.794211 0.219604,-1.455758 -3.892484,-1.730844 -1.811505,-2.657732 1.017992,0.930762 1.997822,-0.415466 1.271418,-1.054295 -1.822278,-1.083207 -5.065602,1.069689 -3.113629,2.925616 0.727806,0.278137 3.044812,1.362856 1.14622,1.716633 -1.670571,-0.281558 -1.573269,-0.82365 -1.895975,0.863989 z m 9.727066,-1.211985 c -2.166439,1.353046 -3.898201,-2.469288 -1.425405,-3.062302 1.207248,0.301384 1.597776,-0.01274 1.653402,-1.209643 -1.923875,-0.771054 -4.649156,0.278618 -4.737337,2.568542 -0.355032,2.035538 1.64811,3.69761 3.596411,3.302195 1.562388,0.06587 1.016335,-0.597375 0.912929,-1.598792 z m 1.226117,1.499981 c 0.554859,-0.167548 1.816705,0.371892 1.823976,-0.343244 0.03573,-1.175823 -0.07421,-2.367332 0.06,-3.532706 1.183857,-1.744462 2.212939,0.541399 1.859976,1.792138 0,0.694604 0,1.389208 0,2.083812 0.554859,-0.167548 1.816705,0.371892 1.823976,-0.343244 -0.09241,-1.55639 0.250376,-3.194895 -0.338765,-4.67447 -0.55168,-2.016549 -3.228669,-0.206618 -3.405187,-0.485464 0,-1.005571 0,-2.011142 0,-3.016713 -0.554859,0.167548 -1.816705,-0.371892 -1.823976,0.343244 0,2.725549 0,5.451098 0,8.176647 z m 12.215183,-2.35197 c 0.477125,-1.801227 -0.878258,-4.045272 -2.924448,-3.619897 -2.957133,0.127356 -3.600904,4.989687 -0.793256,5.88318 0.935054,0.200364 3.879341,0.673148 3.301044,-0.949528 -0.2916,-1.067896 -3.22439,0.735892 -3.363291,-1.313755 1.259983,0 2.519967,0 3.779951,0 z m -3.791951,-1.247984 c -0.237691,-2.00384 3.118125,-0.884217 1.816728,0 -0.605576,0 -1.211152,0 -1.816728,0 z m 4.936143,3.599954 c 0.554859,-0.167548 1.816705,0.371892 1.823976,-0.343244 0.03304,-1.164243 -0.07038,-2.341756 0.06,-3.496707 1.155177,-1.793744 2.222159,0.47028 1.859976,1.732139 0,0.702604 0,1.405208 0,2.107812 0.554859,-0.167548 1.816705,0.371892 1.823976,-0.343244 -0.09716,-1.559965 0.260235,-3.206977 -0.34453,-4.685908 -0.690392,-1.798439 -3.187274,-0.531093 -3.626851,-0.25041 0.196478,-0.985692 -0.970833,-0.459997 -1.547957,-0.588363 -0.146729,0.912121 -0.0054,2.172759 -0.04859,3.244952 0,0.874324 0,1.748648 0,2.622973 z m 8.855226,-8.519891 c -0.554859,0.167548 -1.816705,-0.371892 -1.823976,0.343244 0,2.725549 0,5.451098 0,8.176647 0.554859,-0.167548 1.816705,0.371892 1.823976,-0.343244 0.05066,-0.724832 -0.227977,-1.564234 0.455994,-2.068725 0.475994,0.803989 0.951988,1.607979 1.427982,2.411969 0.74799,0 1.495981,0 2.243971,0 -0.79999,-1.163985 -1.599979,-2.32797 -2.399969,-3.491955 0.699991,-0.79199 1.399982,-1.58398 2.099973,-2.37597 -0.731991,0 -1.463981,0 -2.195972,0 -0.546359,0.821749 -1.128752,1.6437 -1.631979,2.471969 0,-1.707978 0,-3.415957 0,-5.123935 z m 7.499613,2.507968 c -2.160357,-0.198009 -3.700752,2.139465 -3.00745,4.104394 0.663128,2.722915 5.164852,2.692314 5.838998,-0.0064 0.675729,-1.938272 -0.655001,-4.22495 -2.831548,-4.09796 z m -0.06,1.307983 c 2.002387,0.166798 1.291309,4.610515 -0.722102,3.238553 -0.75263,-0.868436 -0.735876,-3.115696 0.722102,-3.238553 z"
   id="text3772"
   inkscape:connector-curvature="0" />
<path
   style="font-size:9px;font-style:normal;font-variant:normal;font-weight:bold;font-stretch:normal;line-height:125%;letter-spacing:0px;word-spacing:0px;fill:#ffffff;fill-opacity:1;stroke:none;font-family:Myriad Pro;-inkscape-font-specification:Sans Bold"
   d="m 29.055663,74.088915 c 2.274469,0.21376 5.070813,0.412605 6.748456,-1.450014 1.60186,-1.999469 1.380445,-5.673783 -1.160361,-6.811373 -1.75292,-0.766516 -3.742673,-0.546411 -5.588095,-0.331502 0,2.864296 0,5.728592 0,8.592889 z m 1.975974,-7.188908 c 1.622795,-0.453218 3.699458,0.493067 3.664427,2.372269 0.299811,1.772906 -1.079628,3.624274 -2.975436,3.399657 -1.038354,0.297736 -0.601351,-0.832425 -0.688991,-1.438721 0,-1.444401 0,-2.888803 0,-4.333205 z m 12.276021,1.910976 c -1.074653,0 -2.149306,0 -3.223958,0 0,-0.606659 0,-1.213318 0,-1.819977 1.139652,0 2.279304,0 3.418956,0 0,-0.541659 0,-1.083319 0,-1.624979 -1.798311,0 -3.596621,0 -5.394931,0 0,2.920629 0,5.841258 0,8.761887 1.858976,0 3.717952,0 5.576928,0 0,-0.541659 0,-1.083319 0,-1.624979 -1.200318,0 -2.400635,0 -3.600953,0 0,-0.693324 0,-1.386648 0,-2.079973 1.074652,0 2.149305,0 3.223958,0 0,-0.537326 0,-1.074653 0,-1.611979 z m 1.380712,4.900937 c 1.726067,0.770972 4.197685,0.901175 5.524367,-0.671776 1.041834,-1.317105 0.32459,-3.372449 -1.239757,-3.887456 -1.018881,-0.174812 -3.247265,-1.412216 -1.45268,-2.234801 0.98281,-0.568231 2.591342,1.102922 2.615857,-0.496597 0.718391,-1.277766 -1.40914,-1.128014 -2.220553,-1.179512 -1.650775,-0.08577 -3.481684,1.285804 -3.076314,3.075316 0.334453,1.684035 2.259948,1.94928 3.500408,2.687611 1.275089,1.80683 -2.024031,1.975196 -3.037544,1.185677 -0.469965,-0.112126 -0.367085,1.006094 -0.589829,1.424946 l -0.02106,0.08491 -0.0029,0.01168 z m 7.358808,-8.345893 c 0,2.920629 0,5.841258 0,8.761887 0.658658,0 1.317317,0 1.975975,0 0,-2.920629 0,-5.841258 0,-8.761887 -0.658658,0 -1.317317,0 -1.975975,0 z m 11.012937,3.743952 c -1.087652,0 -2.175305,0 -3.262958,0 0.05991,0.484908 -0.118947,1.208589 0.08748,1.54698 0.406766,0.131378 1.398124,-0.321837 1.2645,0.349931 -0.101735,0.476294 0.204884,1.257341 -0.153971,1.541749 -1.779231,0.519397 -3.766934,-0.883019 -3.576981,-2.801668 -0.198587,-2.07246 2.043512,-3.254624 3.851146,-2.77348 1.018671,0.573411 1.277216,0.08772 1.397161,-0.868788 0.09181,-1.13528 -2.253385,-0.731393 -3.118418,-0.783663 -2.112122,0.133564 -4.084287,1.811443 -4.176144,3.996532 -0.317452,2.075143 0.982313,4.374356 3.1455,4.733613 1.505977,0.331033 3.087535,0.144696 4.542682,-0.326265 0,-1.538314 0,-3.076627 0,-4.614941 z m 3.362399,5.017935 c -0.0063,-2.158152 0.03098,-4.318052 -0.091,-6.473916 0.865499,1.841967 1.912398,3.722386 2.92931,5.542889 0.286003,0.413593 0.379346,1.154128 1.040542,0.931027 0.48842,-0.0591 1.212852,0.117813 1.555077,-0.08748 0,-2.891468 0,-5.782937 0,-8.674405 -0.606658,0 -1.213317,0 -1.819976,0 -0.0024,2.06753 -0.02123,4.198218 0.129998,6.21392 -0.854467,-2.185333 -2.116668,-4.169466 -3.249958,-6.21392 -0.771323,0 -1.542647,0 -2.31397,0 0,2.920629 0,5.841258 0,8.761887 0.606659,0 1.213317,0 1.819976,0 z"
   id="text3754"
   inkscape:connector-curvature="0" /></svg>