<?xml version="1.0" encoding="utf-8"?>
<!-- Generator: Adobe Illustrator 16.0.0, SVG Export Plug-In . SVG Version: 6.00 Build 0)  -->
<!DOCTYPE svg PUBLIC "-//W3C//DTD SVG 1.1//EN" "http://www.w3.org/Graphics/SVG/1.1/DTD/svg11.dtd">
<svg version="1.1" id="Layer_1" xmlns="http://www.w3.org/2000/svg" xmlns:xlink="http://www.w3.org/1999/xlink" x="0px" y="0px"
	 width="81.525px" height="100px" viewBox="0 0 81.525 100" enable-background="new 0 0 81.525 100" xml:space="preserve">
<path d="M36.032,39.723h25.744v-2.699H36.032V39.723z M36.032,48.28h25.744v-2.699H36.032V48.28z M36.032,56.537h25.744v-2.704
	H36.032V56.537z M36.032,73.943h25.744v-2.698H36.032V73.943z M36.032,65.094h25.744v-2.703H36.032V65.094z M0,85.29h15.909V100
	h65.616V10.851h-9.104L69.426,0h-5.412l2.995,10.851h-9.813L54.199,0h-5.412l2.995,10.851h-9.813L38.975,0H33.56l2.994,10.851
	h-9.811L23.751,0h-5.415l2.993,10.851h-4.973L0,85.29z M24.011,18.956h49.41v72.94h-49.41V18.956z"/>
</svg>
