<?xml version="1.0" encoding="UTF-8" standalone="no"?>
<!-- Generator: Adobe Illustrator 16.0.0, SVG Export Plug-In . SVG Version: 6.00 Build 0)  -->

<svg
   xmlns:dc="http://purl.org/dc/elements/1.1/"
   xmlns:cc="http://creativecommons.org/ns#"
   xmlns:rdf="http://www.w3.org/1999/02/22-rdf-syntax-ns#"
   xmlns:svg="http://www.w3.org/2000/svg"
   xmlns="http://www.w3.org/2000/svg"
   xmlns:sodipodi="http://sodipodi.sourceforge.net/DTD/sodipodi-0.dtd"
   xmlns:inkscape="http://www.inkscape.org/namespaces/inkscape"
   version="1.1"
   id="Layer_1"
   x="0px"
   y="0px"
   width="100"
   height="100"
   viewBox="0 0 100 100"
   enable-background="new 0 0 100 60"
   xml:space="preserve"
   inkscape:version="0.48.4 r9939"
   sodipodi:docname="linkedin.svg"><metadata
   id="metadata19"><rdf:RDF><cc:Work
       rdf:about=""><dc:format>image/svg+xml</dc:format><dc:type
         rdf:resource="http://purl.org/dc/dcmitype/StillImage" /><dc:title></dc:title></cc:Work></rdf:RDF></metadata><defs
   id="defs17" /><sodipodi:namedview
   pagecolor="#ffffff"
   bordercolor="#666666"
   borderopacity="1"
   objecttolerance="10"
   gridtolerance="10"
   guidetolerance="10"
   inkscape:pageopacity="0"
   inkscape:pageshadow="2"
   inkscape:window-width="1366"
   inkscape:window-height="716"
   id="namedview15"
   showgrid="false"
   inkscape:zoom="3.44"
   inkscape:cx="16.70583"
   inkscape:cy="53.255814"
   inkscape:window-x="-8"
   inkscape:window-y="-8"
   inkscape:window-maximized="1"
   inkscape:current-layer="Layer_1" />
<rect
   width="100"
   height="100.11628"
   id="rect3"
   style="fill:#008a00;fill-opacity:1"
   x="0"
   y="0.17441799" />


<text
   xml:space="preserve"
   style="font-size:40px;font-style:normal;font-weight:normal;line-height:125%;letter-spacing:0px;word-spacing:0px;fill:#000000;fill-opacity:1;stroke:none;font-family:Sans"
   x="107.26744"
   y="88.372093"
   id="text3000"
   sodipodi:linespacing="125%"><tspan
     sodipodi:role="line"
     id="tspan3002"
     x="107.26744"
     y="88.372093" /></text>







<path
   d="m 87.474864,56.430766 c 0.29867,-1.88891 0.456005,-3.821376 0.456005,-5.793842 0,-20.499783 -16.617074,-37.116856 -37.117746,-37.116856 -1.967133,0 -3.904932,0.161779 -5.792064,0.456894 -3.418705,-2.11469 -7.453416,-3.338704 -11.77702,-3.338704 -12.387693,0 -22.429582,10.041 -22.429582,22.429582 0,4.322715 1.224903,8.353871 3.338704,11.779687 -0.292448,1.891576 -0.453338,3.81782 -0.453338,5.790286 0,20.500672 16.617073,37.113301 37.112411,37.113301 1.968911,0 3.906711,-0.152002 5.793843,-0.449783 3.42226,2.111135 7.453416,3.338704 11.777019,3.338704 12.39036,0 22.43136,-10.043667 22.43136,-22.432249 8.89e-4,-4.323604 -1.223124,-8.35476 -3.339592,-11.77702 z M 68.435541,67.518 c -1.570684,2.26047 -3.876487,4.026712 -6.890743,5.296948 -3.020478,1.272903 -6.589406,1.906688 -10.71123,1.906688 -4.940499,0 -9.031211,-0.86401 -12.259692,-2.609807 -2.288914,-1.249791 -4.150268,-2.927143 -5.581395,-5.018722 -1.433794,-2.092468 -2.160913,-4.141379 -2.160913,-6.139624 0,-1.17868 0.449783,-2.204469 1.324459,-3.040034 0.884455,-0.841787 2.023134,-1.264014 3.367149,-1.264014 1.101345,0 2.047134,0.33156 2.81692,0.988456 0.764453,0.656896 1.405349,1.611573 1.929799,2.872032 0.628452,1.46046 1.311126,2.680918 2.037356,3.654262 0.721786,0.961789 1.737797,1.765353 3.053367,2.393805 1.301348,0.630229 3.032923,0.944899 5.200058,0.944899 2.965366,0 5.362726,-0.640896 7.196524,-1.906688 1.843576,-1.276458 2.729809,-2.830253 2.729809,-4.708496 0,-1.496906 -0.478228,-2.687141 -1.456906,-3.614263 -0.987566,-0.938677 -2.264025,-1.65424 -3.847153,-2.152913 -1.589351,-0.504005 -3.723597,-1.039122 -6.398294,-1.602684 -3.591151,-0.78312 -6.59474,-1.696019 -9.026767,-2.743142 -2.435582,-1.052456 -4.375159,-2.489805 -5.812508,-4.305825 -1.440905,-1.833798 -2.159136,-4.112935 -2.159136,-6.81252 0,-2.574251 0.758231,-4.876499 2.27647,-6.880077 1.51735,-2.008911 3.71293,-3.546706 6.575184,-4.617829 2.852476,-1.071123 6.210736,-1.60624 10.05789,-1.60624 3.076478,0 5.737841,0.35556 7.990311,1.064012 2.247136,0.713786 4.119157,1.65513 5.616062,2.836476 1.488905,1.17868 2.58314,2.422249 3.276481,3.727153 0.692452,1.308458 1.041789,2.586695 1.041789,3.83382 0,1.160013 -0.449783,2.21158 -1.325348,3.133368 -0.876454,0.923566 -1.996466,1.393793 -3.304925,1.389349 -1.179569,0 -2.104913,-0.272003 -2.746698,-0.84801 -0.624895,-0.557339 -1.280903,-1.44446 -1.991133,-2.680918 -0.896899,-1.725353 -1.971577,-3.069368 -3.222258,-4.031156 -1.216902,-0.943122 -3.224925,-1.434683 -6.018733,-1.428461 -2.584918,0 -4.653385,0.528006 -6.214292,1.560907 -1.570684,1.049789 -2.321803,2.26758 -2.325359,3.694263 0.0027,0.894232 0.259559,1.648018 0.776898,2.29247 0.525339,0.650674 1.256014,1.214236 2.19558,1.689796 0.939566,0.482672 1.895132,0.85601 2.856031,1.124457 0.971567,0.275559 2.584029,0.673786 4.824943,1.200903 2.810698,0.606229 5.360948,1.28268 7.65164,2.020466 2.286248,0.741342 4.237381,1.635574 5.849843,2.700475 1.624907,1.062234 2.895143,2.416027 3.80182,4.0516 0.91201,1.638241 1.367126,3.639152 1.367126,5.992956 0.0036,2.835587 -0.786675,5.384949 -2.360026,7.641862 z"
   id="Skype"
   inkscape:connector-curvature="0"
   style="fill:#ffffff" /></svg>