<?xml version="1.0" encoding="UTF-8" standalone="no"?>
<!-- Generator: Adobe Illustrator 16.0.0, SVG Export Plug-In . SVG Version: 6.00 Build 0)  -->

<svg
   xmlns:dc="http://purl.org/dc/elements/1.1/"
   xmlns:cc="http://creativecommons.org/ns#"
   xmlns:rdf="http://www.w3.org/1999/02/22-rdf-syntax-ns#"
   xmlns:svg="http://www.w3.org/2000/svg"
   xmlns="http://www.w3.org/2000/svg"
   xmlns:sodipodi="http://sodipodi.sourceforge.net/DTD/sodipodi-0.dtd"
   xmlns:inkscape="http://www.inkscape.org/namespaces/inkscape"
   version="1.1"
   id="Layer_1"
   x="0px"
   y="0px"
   width="100"
   height="100"
   viewBox="0 0 100 100"
   enable-background="new 0 0 100 60"
   xml:space="preserve"
   inkscape:version="0.48.4 r9939"
   sodipodi:docname="skype.svg"><metadata
   id="metadata19"><rdf:RDF><cc:Work
       rdf:about=""><dc:format>image/svg+xml</dc:format><dc:type
         rdf:resource="http://purl.org/dc/dcmitype/StillImage" /><dc:title></dc:title></cc:Work></rdf:RDF></metadata><defs
   id="defs17" /><sodipodi:namedview
   pagecolor="#ffffff"
   bordercolor="#666666"
   borderopacity="1"
   objecttolerance="10"
   gridtolerance="10"
   guidetolerance="10"
   inkscape:pageopacity="0"
   inkscape:pageshadow="2"
   inkscape:window-width="1366"
   inkscape:window-height="716"
   id="namedview15"
   showgrid="false"
   inkscape:zoom="3.44"
   inkscape:cx="16.70583"
   inkscape:cy="53.255814"
   inkscape:window-x="-8"
   inkscape:window-y="-8"
   inkscape:window-maximized="1"
   inkscape:current-layer="Layer_1" />
<rect
   width="100"
   height="100.11628"
   id="rect3"
   style="fill:#008a00;fill-opacity:1"
   x="0"
   y="0.17441799" />


<text
   xml:space="preserve"
   style="font-size:40px;font-style:normal;font-weight:normal;line-height:125%;letter-spacing:0px;word-spacing:0px;fill:#000000;fill-opacity:1;stroke:none;font-family:Sans"
   x="107.26744"
   y="88.372093"
   id="text3000"
   sodipodi:linespacing="125%"><tspan
     sodipodi:role="line"
     id="tspan3002"
     x="107.26744"
     y="88.372093" /></text>







<path
   d="M 72.46107,71.217374 H 52.720625 c -2.744,0 -5.077333,-0.96 -6.994666,-2.888889 -1.926223,-1.930667 -2.878223,-4.264 -2.878223,-7.021334 v -7.024889 h 28.128001 c 2.536889,0 4.721778,-0.912 6.536889,-2.722666 1.815111,-1.825778 2.725333,-4.008001 2.725333,-6.547556 0,-2.548445 -0.911111,-4.728 -2.730666,-6.547556 -1.821334,-1.815111 -4.012445,-2.725333 -6.56,-2.725333 H 42.847736 V 21.224484 c 0,-2.746667 -0.979555,-5.097778 -2.924444,-7.056889 -1.936889,-1.962667 -4.279111,-2.946667 -7,-2.946667 -2.796445,0 -5.177778,0.969778 -7.114667,2.888889 -1.943111,1.925333 -2.913778,4.296889 -2.913778,7.123556 v 40.080001 c 0,8.243555 2.913778,15.286222 8.744,21.131554 5.835556,5.856 12.869334,8.776 21.093334,8.776 h 19.735112 c 2.740444,0 5.092444,-0.984 7.048889,-2.946667 1.958222,-1.952889 2.935111,-4.309333 2.935111,-7.053333 0,-2.744889 -0.976889,-5.096887 -2.935111,-7.058665 -1.957334,-1.957334 -4.312889,-2.944889 -7.055112,-2.944889 z"
   id="Twitter"
   inkscape:connector-curvature="0"
   style="fill:#ffffff" /></svg>