<?xml version="1.0" encoding="UTF-8" standalone="no"?>
<!-- Generator: Adobe Illustrator 16.0.0, SVG Export Plug-In . SVG Version: 6.00 Build 0)  -->

<svg
   xmlns:dc="http://purl.org/dc/elements/1.1/"
   xmlns:cc="http://creativecommons.org/ns#"
   xmlns:rdf="http://www.w3.org/1999/02/22-rdf-syntax-ns#"
   xmlns:svg="http://www.w3.org/2000/svg"
   xmlns="http://www.w3.org/2000/svg"
   xmlns:sodipodi="http://sodipodi.sourceforge.net/DTD/sodipodi-0.dtd"
   xmlns:inkscape="http://www.inkscape.org/namespaces/inkscape"
   version="1.1"
   id="Layer_1"
   x="0px"
   y="0px"
   width="100"
   height="100"
   viewBox="0 0 100 100"
   enable-background="new 0 0 100 60"
   xml:space="preserve"
   inkscape:version="0.48.4 r9939"
   sodipodi:docname="twitter.svg"><metadata
   id="metadata19"><rdf:RDF><cc:Work
       rdf:about=""><dc:format>image/svg+xml</dc:format><dc:type
         rdf:resource="http://purl.org/dc/dcmitype/StillImage" /><dc:title></dc:title></cc:Work></rdf:RDF></metadata><defs
   id="defs17" /><sodipodi:namedview
   pagecolor="#ffffff"
   bordercolor="#666666"
   borderopacity="1"
   objecttolerance="10"
   gridtolerance="10"
   guidetolerance="10"
   inkscape:pageopacity="0"
   inkscape:pageshadow="2"
   inkscape:window-width="1366"
   inkscape:window-height="716"
   id="namedview15"
   showgrid="false"
   inkscape:zoom="3.44"
   inkscape:cx="16.70583"
   inkscape:cy="53.255814"
   inkscape:window-x="-8"
   inkscape:window-y="-8"
   inkscape:window-maximized="1"
   inkscape:current-layer="Layer_1" />
<rect
   width="100"
   height="100.11628"
   id="rect3"
   style="fill:#008a00;fill-opacity:1"
   x="0"
   y="0.17441799" />


<text
   xml:space="preserve"
   style="font-size:40px;font-style:normal;font-weight:normal;line-height:125%;letter-spacing:0px;word-spacing:0px;fill:#000000;fill-opacity:1;stroke:none;font-family:Sans"
   x="107.26744"
   y="88.372093"
   id="text3000"
   sodipodi:linespacing="125%"><tspan
     sodipodi:role="line"
     id="tspan3002"
     x="107.26744"
     y="88.372093" /></text>







<path
   d="m 73.25158,68.575473 h -4.391111 l 0.02045,-2.550223 c 0,-1.133333 0.930666,-2.060444 2.068444,-2.060444 h 0.28 c 1.139556,0 2.072889,0.927111 2.072889,2.060444 l -0.05067,2.550223 z M 56.783136,63.110584 c -1.113778,0 -2.024889,0.748444 -2.024889,1.664889 v 12.402665 c 0,0.914666 0.911111,1.661333 2.024889,1.661333 1.118222,0 2.030222,-0.746667 2.030222,-1.661333 V 64.775473 c 0,-0.917334 -0.912,-1.664889 -2.030222,-1.664889 z m 26.744,-6.937778 v 23.594665 c 0,5.659556 -4.908444,10.290667 -10.906667,10.290667 H 27.768024 c -6.000889,0 -10.907556,-4.631111 -10.907556,-10.290667 V 56.172806 c 0,-5.659556 4.906667,-10.291556 10.907556,-10.291556 h 44.852445 c 5.998223,0 10.906667,4.632 10.906667,10.291556 z m -52.767112,26.156443 -0.0036,-24.854221 5.56,0.0018 v -3.682667 l -14.821333,-0.02222 v 3.620444 l 4.626667,0.01333 V 82.329269 H 30.75998 z M 47.426691,61.17725 h -4.635556 v 13.272001 c 0,1.92 0.116445,2.879998 -0.0071,3.218664 -0.376889,1.029334 -2.071111,2.121778 -2.731555,0.111112 -0.112,-0.352 -0.01333,-1.414221 -0.01511,-3.238221 L 40.018691,61.17725 h -4.609778 l 0.01422,13.152889 c 0.0036,2.016 -0.04533,3.519999 0.016,4.203554 0.112889,1.206223 0.07289,2.613334 1.192,3.416 2.085334,1.503112 6.082667,-0.224 7.082667,-2.371555 l -0.0089,2.740444 3.722667,0.0044 V 61.17725 z m 14.829334,15.198223 -0.0098,-11.046223 c -0.0036,-4.209778 -3.152889,-6.731555 -7.428445,-3.325333 l 0.01867,-8.212445 -4.631111,0.0071 -0.02222,28.346666 3.807112,-0.056 0.346666,-1.765333 c 4.867556,4.464889 7.926223,1.406222 7.919112,-3.948443 z m 14.507556,-1.464 -3.476445,0.01867 c -0.0018,0.137778 -0.0062,0.296889 -0.008,0.470223 v 1.939553 c 0,1.037334 -0.857778,1.882667 -1.899556,1.882667 h -0.680889 c -1.043555,0 -1.900444,-0.845333 -1.900444,-1.882667 v -0.215111 -2.133331 -2.752889 h 7.959111 v -2.995556 c 0,-2.189333 -0.056,-4.377778 -0.237333,-5.629333 -0.568889,-3.959111 -6.126222,-4.587556 -8.933334,-2.560889 -0.881777,0.632889 -1.554666,1.48 -1.945777,2.618666 -0.395556,1.138667 -0.591112,2.694223 -0.591112,4.670223 v 6.585778 c 8.89e-4,10.949332 13.300445,9.401776 11.713779,-0.016 z M 58.934247,39.15325 c 0.239111,0.581333 0.610666,1.052444 1.114666,1.408 0.497778,0.350222 1.135112,0.526222 1.896889,0.526222 0.668445,0 1.260445,-0.180444 1.776,-0.552889 0.513778,-0.370667 0.946667,-0.924444 1.299556,-1.663111 l -0.08711,1.818667 h 5.167111 V 18.715916 h -4.067557 v 17.102223 c 0,0.926222 -0.762666,1.684444 -1.695111,1.684444 -0.927111,0 -1.692444,-0.758222 -1.692444,-1.684444 V 18.715916 H 58.400913 V 33.53725 c 0,1.888 0.03378,3.146666 0.08978,3.784889 0.05956,0.633777 0.204445,1.241777 0.443556,1.831111 z M 43.27558,26.742583 c 0,-2.109334 0.176,-3.756445 0.525333,-4.944 0.352,-1.183112 0.984,-2.134223 1.899556,-2.851556 0.912889,-0.720889 2.081777,-1.081778 3.503111,-1.081778 1.195555,0 2.219555,0.234667 3.075555,0.694222 0.859556,0.462223 1.521778,1.062223 1.982223,1.802667 0.468444,0.743111 0.786666,1.506667 0.956444,2.288 0.173334,0.792 0.258667,1.986667 0.258667,3.598223 v 5.557333 c 0,2.038222 -0.08178,3.537778 -0.24,4.489778 -0.157333,0.954667 -0.495111,1.84 -1.017778,2.670222 -0.516444,0.821333 -1.182222,1.435556 -1.989333,1.827556 -0.816,0.395555 -1.749334,0.589333 -2.803556,0.589333 -1.177778,0 -2.169778,-0.162667 -2.987556,-0.502222 -0.820444,-0.337778 -1.454222,-0.847111 -1.905777,-1.523556 -0.456,-0.677333 -0.776889,-1.502222 -0.970667,-2.464 -0.194667,-0.960889 -0.287111,-2.406222 -0.287111,-4.332444 v -5.817778 z m 4.047111,8.728889 c 0,1.244444 0.926222,2.260444 2.054222,2.260444 1.128889,0 2.050667,-1.016 2.050667,-2.260444 V 23.773694 c 0,-1.242667 -0.921778,-2.258667 -2.050667,-2.258667 -1.128,0 -2.054222,1.016 -2.054222,2.258667 v 11.697778 z m -14.300445,5.906667 h 4.874667 l 0.0053,-16.853334 5.76,-14.437334 H 38.330691 L 35.268468,20.811027 32.162691,10.058138 h -5.276445 l 6.128,14.474667 0.008,16.845334 z"
   id="YouTube"
   inkscape:connector-curvature="0"
   style="fill:#ffffff" /></svg>